<svg xmlns="http://www.w3.org/2000/svg" enable-background="new 0 0 24 24" viewBox="0 0 24 24"><linearGradient id="a" x1="6.925" x2="17.703" y1="10.089" y2="10.089" gradientUnits="userSpaceOnUse"><stop offset="0" stop-color="#9c27b0"/><stop offset="1" stop-color="#ff9800"/></linearGradient><path fill="url(#a)" d="M14.403,1.999c0.544-0.629,2.084-2.206,3.066-0.925s-1.383,8.186-2.39,10S10.496,16.72,12,16.417s-0.599,2.134-2.114,2.524s-3.26,1.855-2.918-1.517C7.309,14.051,13.343,3.223,14.403,1.999z"/><path d="M8.232,20.087c-0.583,0-1.068-0.261-1.364-0.735c-0.229-0.366-0.341-0.842-0.341-1.455C6.527,13.666,13.269,0,15.967,0c0.764,0,1.405,0.349,1.854,1.009c0.924,1.358,0.769,3.722,0.301,4.907c-1.256,3.184-2.614,6.462-4.194,8.5c-0.002,0.003-0.005,0.006-0.007,0.01c0.057-0.038,0.113-0.075,0.169-0.113c0.305-0.204,0.712-0.159,0.963,0.106c0.252,0.266,0.275,0.675,0.054,0.968C14.963,15.579,11.521,20.087,8.232,20.087z M15.999,1.5c-1.447,0.486-6.733,9.83-7.81,15.07c-0.342,1.666-0.036,2.005-0.033,2.007c0.003,0,0.007,0,0.01,0c0.792,0,1.651-0.388,2.465-0.937c-0.006,0-0.009-0.001-0.014,0c-0.311-0.002-0.588-0.196-0.697-0.488c-0.109-0.291-0.026-0.62,0.207-0.825c0.013-0.012,1.341-1.188,2.616-2.831c1.458-1.881,2.821-5.184,3.984-8.131c0.381-0.965,0.4-2.71-0.146-3.512C16.38,1.559,16.168,1.506,15.999,1.5z"/><path d="M6.25,24c-0.083,0-0.168-0.014-0.251-0.043c-0.39-0.139-0.594-0.567-0.456-0.958C10.39,9.335,15.187,3.45,15.389,3.207c0.264-0.319,0.735-0.363,1.055-0.1c0.319,0.264,0.364,0.736,0.101,1.056c-0.048,0.058-4.842,5.959-9.588,19.339C6.848,23.808,6.559,24,6.25,24z"/><path d="M9.165,21.065c-0.162,0-0.324-0.052-0.461-0.159l-1.172-0.916l-1.224,0.094c-0.404,0.045-0.774-0.277-0.805-0.69c-0.032-0.413,0.277-0.774,0.69-0.805l1.514-0.116c0.19-0.02,0.372,0.042,0.52,0.157l1.401,1.095c0.326,0.255,0.384,0.726,0.129,1.053C9.608,20.966,9.388,21.065,9.165,21.065z"/></svg>