<svg xmlns="http://www.w3.org/2000/svg" enable-background="new 0 0 24 24" viewBox="0 0 24 24"><polygon points="21.953 14.917 21.957 14.913 21.951 14.917 21.952 14.917"/><polygon fill="#32648D" points="21.953 14.917 21.957 14.913 21.951 14.917 21.952 14.917"/><path fill="#32648D" d="M18.493 14.679c.078.07.494.297 1.213.331 1.304.062 2.112-.544 2.392-.234.346.384-.061 1.347-1.677 1.813-.357.176-2.3.501-2.846.167L18.493 14.679zM9.79 1.705c-.677-.21-1.892-.566-3.173-.618C6.492 1.076 6.346 1.076 6.201 1.076c-.135 0-.281 0-.417.011C4.68 1.149 3.639 1.444 2.899 2.19 2.149 2.936 1.66 4.155 1.764 6.173c.021.378.198 1.45.51 2.722.302 1.272.729 2.764 1.239 4.088.521 1.314 1.146 2.47 1.739 3.016.292.273.552.378.792.368.229-.011.521-.137.864-.525.51-.568 1.504-1.628 1.994-2.164L9.79 1.705z"/><path fill="#32648D" d="M12.205,1.021V1.019c-1.216,0.003-2.088,0.378-2.75,0.941c-0.682,0.581-1.14,1.377-1.44,2.191C7.658,5.118,7.501,6.679,7.501,6.679c0.367-0.21,0.85-0.42,1.366-0.542c0.517-0.122,1.073-0.159,1.577,0.041c0.504,0.2,0.921,0.67,1.072,1.382c0.724,3.423-0.225,4.696-0.575,5.656c-0.111,0.276-0.227,0.632-0.324,0.994c0,0,0.111-0.027,0.156-0.027c0.267,0.002,0.401,0.133,0.516,0.183c0.352,0.149,0.594,0.462,0.724,0.82c0.034,0.094,0.059,0.194,0.073,0.299c0.013,0.036,0.021,0.078,0.021,0.121c0,0.004,0,0.008,0,0.013c-0.017,0.525-0.027,1.142-0.027,1.762c0,0.735,0.015,1.466,0.042,2.194c0.024,0.553,0.058,1.042,0.101,1.428c0.044,0.393,0.107,0.69,0.147,0.791c0.132,0.336,0.324,0.777,0.672,1.076c0.348,0.299,0.847,0.498,1.758,0.299c0.79-0.173,1.278-0.414,1.604-0.76c0.326-0.346,0.519-0.827,0.644-1.564c0.186-1.104,0.561-4.304,0.606-4.906c-0.021-0.454,0.045-0.803,0.187-1.069c0.146-0.273,0.372-0.44,0.568-0.531c0.098-0.045,0.189-0.076,0.264-0.098c-0.092-0.133-0.174-0.245-0.259-0.353l0.009,0.012c-0.269-0.332-0.5-0.714-0.674-1.125l-0.011-0.03c-0.105-0.22-0.193-0.386-0.286-0.549l0.022,0.041c-0.137-0.252-0.31-0.568-0.491-0.922c-0.362-0.709-0.756-1.569-0.961-2.407c-0.204-0.836-0.234-1.702,0.289-2.313c0.463-0.542,1.276-0.767,2.496-0.641c-0.036-0.11-0.058-0.202-0.118-0.349c-0.297-0.704-0.654-1.311-1.078-1.863c-1.034-1.347-2.706-2.681-5.287-2.724H12.205z"/><path fill="#32648D" d="M13.98 1.244c.667-.126 1.354-.483 2.062-.494h.177c1.843.011 4.051.473 5.676 2.27.208.231.365.778.354 1.534s-.177 1.713-.489 2.774c-.583 1.955-1.562 4.834-3.083 6.915-.052-.053.344-1.608.385-3.016.021-1.114-.208-2.123-.187-2.753.031-.883.052-1.492-.073-2.522L13.98 1.244zM11.289 14.367c0 0-1.131 1.264-1.913 1.643-.782.379-1.442.344-1.569.666-.127.321.198.889 2.223.674 1.621-.172 2.066-1.34 2.066-1.34L11.289 14.367zM8.535 6.23c0 0 .106 1.937 3.233 3.149l-1.15 4.832c-1.864 0-3.531-1.806-3.219-3.865.135-.946.156-1.818.135-2.501-.01-.631-.031-1.167-.031-1.167L8.535 6.23z"/><path fill="#32648D" d="M16.145,9.378c1.789-0.573,2.702-2.136,2.662-3.422c0,0,0.346,6.663-0.255,7.541S16.145,9.378,16.145,9.378z"/><path d="M18.45 17.653c-.495 0-.959-.068-1.267-.257-.353-.216-.464-.678-.248-1.031.216-.354.677-.465 1.031-.248.326.132 1.803-.068 2.134-.205.026-.011.085-.035.113-.043.179-.052.335-.108.469-.168-.298.048-.638.077-1.012.059-.799-.038-1.418-.289-1.678-.521-.309-.275-.335-.75-.059-1.059.265-.295.708-.332 1.017-.094.05.026.311.152.792.176.546.023 1.003-.094 1.371-.19.49-.128 1.1-.287 1.543.204.288.32.379.766.249 1.221-.227.795-1.043 1.451-2.241 1.805C20.292 17.44 19.323 17.653 18.45 17.653zM6.017 17.117c-.444 0-.872-.191-1.277-.571-.808-.744-1.492-2.199-1.923-3.287-.466-1.21-.917-2.695-1.271-4.191C1.229 7.786 1.04 6.66 1.015 6.214.911 4.189 1.366 2.657 2.37 1.658c.785-.792 1.92-1.237 3.372-1.321.295-.021.66-.02.935.001 1.28.053 2.519.396 3.336.649.396.123.617.543.494.939-.122.395-.541.615-.938.494C9.098 2.274 7.85 1.888 6.586 1.835c-.135-.01-.26-.008-.386-.009-.116-.003-.245 0-.362.008-1.096.063-1.88.352-2.407.884-.692.688-1 1.837-.918 3.416.017.313.18 1.323.49 2.582.341 1.438.771 2.854 1.21 3.997.51 1.288 1.09 2.312 1.548 2.734.151.142.237.171.252.171l0 0 0 0c-.005 0 .114-.025.333-.273.309-.343.784-.856 1.224-1.33l.777-.843c.28-.307.755-.328 1.06-.048.306.279.328.753.049 1.06L8.67 15.034c-.434.468-.903.974-1.204 1.309-.433.489-.9.751-1.387.773C6.059 17.117 6.038 17.117 6.017 17.117z"/><path d="M14.129,23.999c-0.621,0-1.14-0.185-1.576-0.559c-0.458-0.395-0.703-0.915-0.882-1.371c-0.104-0.264-0.17-0.773-0.194-0.981c-0.045-0.401-0.081-0.908-0.105-1.48c-0.027-0.742-0.042-1.482-0.042-2.227c0-0.605,0.01-1.208,0.025-1.728c-0.005-0.022-0.009-0.045-0.012-0.067c-0.007-0.051-0.019-0.1-0.035-0.146c-0.04-0.108-0.135-0.308-0.312-0.383c-0.062-0.027-0.118-0.058-0.179-0.094c-0.259,0.063-0.539-0.025-0.725-0.215s-0.268-0.477-0.199-0.732c0.103-0.385,0.228-0.769,0.352-1.079c0.049-0.137,0.121-0.303,0.2-0.483c0.381-0.872,0.903-2.066,0.337-4.738c-0.089-0.42-0.308-0.719-0.615-0.841C9.88,6.761,9.5,6.76,9.04,6.867C8.51,6.992,8.083,7.211,7.875,7.33C7.631,7.47,7.329,7.462,7.093,7.31C6.857,7.156,6.727,6.885,6.755,6.604c0.007-0.067,0.171-1.668,0.557-2.714c0.389-1.055,0.947-1.896,1.658-2.502c0.87-0.739,1.958-1.116,3.234-1.119c0.001,0,0.001,0.002,0.002,0.002h0.118c2.368,0.039,4.397,1.083,5.882,3.017c0.473,0.615,0.857,1.278,1.174,2.027c0.058,0.139,0.087,0.236,0.117,0.332c0.074,0.24,0.036,0.546-0.124,0.74s-0.388,0.341-0.642,0.314c-0.927-0.097-1.551,0.032-1.848,0.382c-0.275,0.322-0.319,0.876-0.131,1.648c0.202,0.824,0.61,1.676,0.9,2.244c0.149,0.292,0.294,0.559,0.416,0.783l0.029,0.055c0.003,0.004,0.005,0.009,0.008,0.013c0.101,0.177,0.197,0.357,0.311,0.597c0.167,0.395,0.352,0.706,0.574,0.984c0.004,0.005,0.009,0.011,0.013,0.016c0,0.001,0.001,0.001,0.001,0.002l0,0c0.095,0.12,0.187,0.244,0.289,0.393c0.136,0.199,0.169,0.452,0.087,0.679c-0.082,0.228-0.268,0.401-0.5,0.467c-0.045,0.014-0.099,0.031-0.157,0.059c-0.055,0.025-0.157,0.085-0.22,0.203c-0.078,0.146-0.112,0.382-0.099,0.681c-0.05,0.735-0.428,3.953-0.615,5.064c-0.152,0.898-0.411,1.501-0.839,1.954c-0.443,0.471-1.057,0.772-1.988,0.978C14.665,23.967,14.388,23.999,14.129,23.999z M12.819,15.319c0.024,0.092,0.037,0.188,0.037,0.287c-0.017,0.555-0.027,1.163-0.027,1.774c0,0.727,0.015,1.447,0.042,2.167c0.022,0.528,0.056,1,0.097,1.373c0.042,0.371,0.092,0.576,0.104,0.611c0.07,0.177,0.223,0.566,0.459,0.771c0.112,0.096,0.351,0.299,1.108,0.135c0.8-0.177,1.078-0.394,1.218-0.542c0.213-0.226,0.352-0.587,0.451-1.175c0.178-1.053,0.552-4.227,0.598-4.837c-0.027-0.493,0.062-0.97,0.273-1.365c0.101-0.189,0.234-0.361,0.392-0.508c-0.2-0.294-0.372-0.61-0.513-0.942c-0.077-0.166-0.146-0.298-0.215-0.422c-0.01-0.017-0.021-0.033-0.03-0.051h0.001c-0.001-0.003-0.003-0.006-0.005-0.009h-0.001c-0.02-0.037-0.036-0.076-0.049-0.116l-0.012,0.004c-0.126-0.234-0.276-0.511-0.433-0.815c-0.325-0.637-0.784-1.594-1.022-2.571c-0.309-1.269-0.158-2.27,0.448-2.978c0.441-0.518,1.085-0.822,1.922-0.91c-0.19-0.353-0.405-0.684-0.647-0.997c-1.214-1.582-2.796-2.4-4.705-2.432h-0.105c-0.924,0.001-1.665,0.249-2.265,0.76C9.429,2.968,9.018,3.6,8.719,4.41C8.604,4.72,8.512,5.105,8.44,5.475c0.086-0.025,0.171-0.047,0.256-0.067c0.763-0.18,1.444-0.156,2.024,0.073c0.778,0.309,1.336,1.01,1.53,1.924c0.665,3.144,0.005,4.652-0.431,5.65c-0.065,0.149-0.126,0.287-0.174,0.418c-0.025,0.062-0.05,0.128-0.074,0.195c0.002,0.001,0.004,0.002,0.006,0.003c0.521,0.226,0.925,0.67,1.14,1.258C12.764,15.057,12.797,15.187,12.819,15.319z M11.383,15.747c0,0.001,0,0.001,0,0.002C11.383,15.748,11.383,15.748,11.383,15.747z"/><path d="M10.617 14.96c-1.126 0-2.219-.52-2.997-1.424-.792-.921-1.143-2.125-.964-3.304.109-.761.152-1.559.127-2.365-.01-.631-.031-1.158-.031-1.161-.016-.414.306-.763.72-.778.42-.029.763.306.779.72 0 0 .021.544.032 1.185.027.882-.021 1.767-.143 2.619-.114.753.111 1.519.617 2.106.493.573 1.17.902 1.859.902.414 0 .75.336.75.75S11.031 14.96 10.617 14.96zM18.677 14.994c-.199 0-.392-.079-.533-.222-.293-.296-.242-.579-.13-1.198.102-.564.273-1.51.298-2.369.01-.565-.052-1.123-.107-1.614-.049-.434-.091-.809-.08-1.141.03-.863.051-1.432-.068-2.408-.05-.411.243-.784.654-.834.411-.052.785.243.835.654.132 1.092.109 1.74.078 2.639-.007.222.029.546.071.922.04.353.086.764.107 1.205.432-1.021.843-2.188 1.239-3.514.29-.986.449-1.876.458-2.569.009-.643-.121-.968-.167-1.031-1.195-1.32-2.919-2.001-5.117-2.014h-.172c-.311.005-.668.119-1.046.24-.295.095-.588.187-.876.241-.405.074-.799-.191-.876-.598-.077-.407.19-.8.598-.877.229-.043.462-.119.697-.195C14.983.17 15.487.009 16.031 0h.188c2.641.016 4.736.862 6.232 2.517C22.945 3.065 23.007 4.035 23 4.564c-.011.829-.191 1.857-.52 2.977-.942 3.153-1.987 5.489-3.197 7.146-.129.178-.33.289-.549.306C18.715 14.993 18.696 14.994 18.677 14.994z"/><path d="M9.221 18.146c-.971.001-1.614-.221-1.956-.67C7.026 17.162 6.968 16.76 7.109 16.4c.211-.531.714-.67 1.159-.793.237-.065.506-.14.781-.272.473-.229 1.282-1.021 1.681-1.468.277-.31.75-.335 1.059-.059.309.275.335.75.059 1.059-.12.134-1.146 1.267-2.012 1.748.038-.003.076-.007.115-.012 1.094-.116 1.417-.797 1.449-.874.161-.376.595-.562.974-.407.378.153.568.573.422.954-.024.065-.632 1.602-2.687 1.819C9.787 18.13 9.491 18.146 9.221 18.146zM11.768 10.128c-.09 0-.182-.017-.271-.051-3.538-1.37-3.706-3.708-3.711-3.807C7.763 5.856 8.08 5.503 8.494 5.48c.423-.022.759.287.789.693.009.087.205 1.517 2.756 2.505.386.149.578.584.428.97C12.352 9.946 12.068 10.128 11.768 10.128zM16.145 10.128c-.317 0-.612-.203-.714-.521-.126-.395.091-.816.485-.942 1.447-.464 2.172-1.701 2.142-2.685-.013-.414.312-.76.726-.773.408.026.76.312.773.727.049 1.544-1.029 3.469-3.183 4.159C16.298 10.116 16.221 10.128 16.145 10.128z"/></svg>